# xmcd
#
# Track frame offsets:
#	150
#	19747
#	42698
#	62212
#	90062
#	111001
#	129066
#	151842
#	174009
#	194041
#	213020
#	233227
#	256777
#	279852
#
# Disc length: 3975 seconds
#
# Revision: 5
# Processed by: cddbd v1.5.2PL0 Copyright (c) Steve Scherf et al.
# Submitted via: EZCDAudioConverter 8.0.2.1
#
DISCID=a80f850e
DTITLE=Various Artist - st. Quốc Dũng. Thoát Ly
DYEAR=2005
DGENRE=Pop
TTITLE0=Khánh Hà - Chỉ là mùa thu rơi
TTITLE1=Minh Tuyết - Thoát Ly
TTITLE2=Hồ Lệ Thu - 9 con số 1 linh hồn
TTITLE3=Bằng Kiều and Thanh Hà - LK Cơn gió thoăng, Trái tim tội lỗi
TTITLE4=Ngọc Hạ - Đường xưa
TTITLE5=Lưu Bích - Hạt mưa và nỗi nhớ
TTITLE6=Khánh Hà - Cho em ngày nắng xanh
TTITLE7=Thanh Mai and Quốc Dũng - LK Quê hương, Mọng ước, Biển mộng, Bên nhau ng
TTITLE7=ày vui
TTITLE8=Mạnh Quỳnh - Huyện ba người
TTITLE9=Như Quỳnh - Ngại ngùng
TTITLE10=Hương Lan - Mắt Huế xưa
TTITLE11=Như Quỳnh - Lối thu xưa
TTITLE12=Don Hồ - Người về từ lòng đất
TTITLE13=Hợp Ca - LK Quốc Dũng, Tùng Giang, Châu Kỳ
EXTD=
EXTT0=
EXTT1=
EXTT2=
EXTT3=
EXTT4=
EXTT5=
EXTT6=
EXTT7=
EXTT8=
EXTT9=
EXTT10=
EXTT11=
EXTT12=
EXTT13=
PLAYORDER=
